<svg width="12" height="14" viewBox="0 0 12 14" fill="none" xmlns="http://www.w3.org/2000/svg">
<path d="M7.95365 4.07629C8.39912 4.48645 11.1462 7.15308 11.1462 7.15308C11.1877 7.19549 11.1894 7.22321 11.1462 7.28982C11.1462 7.28982 8.39912 9.88787 7.95365 10.3666C7.50818 10.8453 6.69149 10.23 7.2112 9.68287C7.73091 9.13576 9.14156 7.76843 9.14156 7.76843C9.14156 7.76843 1.66428 7.76825 0.921958 7.76838C0.179639 7.7685 0.179681 6.67453 0.921958 6.67441C1.66424 6.67428 9.14156 6.67446 9.14156 6.67446C9.14156 6.67446 7.58243 5.10176 7.2112 4.76002C6.83998 4.41828 7.50818 3.66613 7.95365 4.07629Z" fill="#161616" stroke="#EADEFB" stroke-width="0.160673" stroke-linejoin="round"/>
</svg>
