<svg width="32" height="32" viewBox="0 0 32 32" fill="none" xmlns="http://www.w3.org/2000/svg">
<path d="M15.4463 1.42235C15.6942 0.489684 17.0178 0.489682 17.2657 1.42235L20.0705 11.9736C20.1572 12.2999 20.4121 12.5548 20.7384 12.6415L31.2896 15.4463C32.2223 15.6942 32.2223 17.0178 31.2896 17.2657L20.7384 20.0705C20.4121 20.1572 20.1572 20.4121 20.0705 20.7384L17.2657 31.2896C17.0178 32.2223 15.6942 32.2223 15.4463 31.2896L12.6415 20.7384C12.5548 20.4121 12.2999 20.1572 11.9736 20.0705L1.42235 17.2657C0.489684 17.0178 0.489682 15.6942 1.42235 15.4463L11.9736 12.6415C12.2999 12.5548 12.5548 12.2999 12.6415 11.9736L15.4463 1.42235Z" fill="#B5AEF3"/>
</svg>
